<svg xmlns="http://www.w3.org/2000/svg" width="1024" height="1024" viewBox="0 0 1024 1024"><defs><linearGradient id="g" x1="0" y1="0" x2="0" y2="1"><stop offset="0" stop-color="#8fd3ff"/><stop offset="1" stop-color="#5fb4e6"/></linearGradient></defs><rect width="1024" height="1024" rx="0" fill="url(#g)"/><g>
<ellipse cx="512" cy="864.8000000000001" rx="320" ry="32" fill="#000" opacity=".2"/>
<rect x="256" y="794.4" width="102.4" height="89.6" rx="25.6" fill="#1b1f27"/>
<rect x="665.6" y="794.4" width="102.4" height="89.6" rx="25.6" fill="#1b1f27"/>
<rect x="192" y="154.39999999999998" width="640" height="691.2" rx="89.6" fill="#e0a400"/>
<rect x="211.2" y="154.39999999999998" width="601.5999999999999" height="663.552" rx="83.2" fill="#ffc93c"/>
<rect x="294.4" y="192.79999999999998" width="435.2" height="70.4" rx="19.2" fill="#1d2b3d"/>
<rect x="332.8" y="215.2" width="358.4" height="25.6" rx="12.8" fill="#ff9f1c"/>
<rect x="256" y="295.2" width="512.0" height="307.2" rx="38.4" fill="#22344d"/>
<rect x="324.15999999999997" y="512.48" width="119.68000000000002" height="87.04000000000002" rx="32.64" fill="#e53935"/>
<circle cx="384" cy="474.4" r="54.400000000000006" fill="#f2c9a0"/>
<circle cx="364.96" cy="468.96" r="7.072000000000001" fill="#1d2b3d"/><circle cx="403.04" cy="468.96" r="7.072000000000001" fill="#1d2b3d"/>
<path d="M 359.52 490.71999999999997 Q 384 520.64 408.48 490.71999999999997" stroke="#1d2b3d" stroke-width="7.616000000000001" fill="none" stroke-linecap="round"/>
<path d="M 329.6 458.08 Q 384 387.35999999999996 438.4 458.08" fill="#2b1d14"/>
<line x1="427.52" y1="523.36" x2="460.15999999999997" y2="447.2" stroke="#f2c9a0" stroke-width="19.04" stroke-linecap="round"/>
<rect x="452.15999999999997" y="512.48" width="119.68000000000002" height="87.04000000000002" rx="32.64" fill="#1e6fd9"/>
<circle cx="512" cy="474.4" r="54.400000000000006" fill="#b57a4e"/>
<circle cx="492.96" cy="468.96" r="7.072000000000001" fill="#1d2b3d"/><circle cx="531.04" cy="468.96" r="7.072000000000001" fill="#1d2b3d"/>
<path d="M 487.52 490.71999999999997 Q 512 520.64 536.48 490.71999999999997" stroke="#1d2b3d" stroke-width="7.616000000000001" fill="none" stroke-linecap="round"/>
<path d="M 457.6 458.08 Q 512 387.35999999999996 566.4 458.08" fill="#111"/>
<line x1="555.52" y1="523.36" x2="588.16" y2="447.2" stroke="#b57a4e" stroke-width="19.04" stroke-linecap="round"/>
<rect x="580.16" y="512.48" width="119.68000000000002" height="87.04000000000002" rx="32.64" fill="#2e9e44"/>
<circle cx="640" cy="474.4" r="54.400000000000006" fill="#d9a274"/>
<circle cx="620.96" cy="468.96" r="7.072000000000001" fill="#1d2b3d"/><circle cx="659.04" cy="468.96" r="7.072000000000001" fill="#1d2b3d"/>
<path d="M 615.52 490.71999999999997 Q 640 520.64 664.48 490.71999999999997" stroke="#1d2b3d" stroke-width="7.616000000000001" fill="none" stroke-linecap="round"/>
<path d="M 585.6 458.08 Q 640 387.35999999999996 694.4 458.08" fill="#c9a15a"/>
<line x1="683.52" y1="523.36" x2="716.16" y2="447.2" stroke="#d9a274" stroke-width="19.04" stroke-linecap="round"/>
<path d="M 281.6 314.4 L 435.2 314.4 L 281.6 474.4 Z" fill="#9fd8ff" opacity=".25"/>
<rect x="211.2" y="640.8" width="601.6" height="38.4" fill="#ffffff"/>
<circle cx="320" cy="730.4" r="41.6" fill="#fff4c2"/>
<circle cx="704" cy="730.4" r="41.6" fill="#fff4c2"/>
<rect x="422.4" y="704.8" width="179.2" height="44.8" rx="19.2" fill="#c98f00"/>
</g></svg>